<svg height="512pt" viewBox="0 -11 512 512" width="512pt" xmlns="http://www.w3.org/2000/svg"><path d="m508.886719 216.449219-13.804688-13.78125 13.78125-13.78125c3.753907-3.757813 4.183594-9.707031 1.003907-13.953125-2.367188-3.179688-59.351563-77.867188-157.097657-88.492188-7.148437-.660156-14.53125-1.109375-22.101562-1.109375-60.460938 0-148.738281 19.371094-213.144531 62.507813-7.292969-4.074219-21.480469-11.796875-37.929688-19.476563-4.414062-2.070312-10.21875-.40625-13.226562 3.519531-23.378907 23.785157-66.367188 85.886719-66.367188 156.117188 0 73.128906 30.398438 109.484375 67.113281 146.21875 20.738281 20.734375 46.890625 27.113281 72.214844 33.324219 19.457031 4.753906 39.574219 9.683593 57.324219 21.203125 1.769531 1.152344 3.773437 1.707031 5.757812 1.707031 2.601563 0 5.207032-.960937 7.234375-2.816406 3.582031-3.285157 4.5-8.597657 2.21875-12.882813-3.671875-6.933594-20.953125-42.5625-1.644531-61.867187 30.230469-30.253907 24.660156-101.421875 24.425781-104.429688-.339843-4.074219-2.984375-7.613281-6.804687-9.085937-3.902344-1.449219-8.171875-.597656-11.136719 2.21875-30.207031 28.542968-68.820313 59.902344-78.035156 61.078125-11.480469 0-32-21.503907-32-42.667969 0-21.632812 24.148437-64 53.332031-64 19.925781 0 49.023438 11.796875 70.273438 20.414062 18.773437 7.597657 28.414062 11.394532 34.644531 11.4375l65.75 10.816407h42.664062c66.753907 0 132.714844-64.34375 135.511719-67.074219 2.003906-2.003906 3.15625-4.714844 3.15625-7.574219 0-2.8125-1.128906-5.542969-3.113281-7.570312zm0 0" fill="#cfd8dc"/><path d="m361.835938 91.863281c-1.558594-3.691406-39-90.476562-116.503907-91.863281-61.867187 0-190.890625 58.496094-242.21875 109.78125-3.0273435 3.070312-3.945312 7.636719-2.300781 11.625 1.640625 3.992188 5.542969 6.59375 9.855469 6.59375 11.816406 0 33 6.976562 59.625 19.648438.382812.191406.8125.363281 1.257812.488281 18.21875 8.578125 33.75 17.28125 38.722657 20.121093 1.492187 1.46875 3.410156 2.472657 5.503906 2.855469.660156.128907 1.300781.195313 1.984375.195313 2.195312 0 4.351562-.683594 6.164062-1.964844 60.671875-43.070312 149.695313-62.675781 206.742188-62.675781 6.910156 0 13.628906.402343 20.136719 1.023437 5.78125.640625 10.390624-3.222656 11.433593-8.578125l.214844-1.066406c.425781-2.066406.191406-4.246094-.617187-6.183594zm0 0" fill="#607d8b"/><path d="m341.332031 223.828125c-.105469-5.824219-4.863281-10.496094-10.664062-10.496094h-106.667969c-4.394531 0-8.363281 2.710938-9.941406 6.804688-1.601563 4.121093-.492188 8.769531 2.753906 11.734375 24.894531 22.679687 64.554688 66.261718 65.042969 86.722656.066406 2.6875-.660157 3.796875-1.386719 4.519531-3.050781 3.050781-3.96875 7.640625-2.304688 11.628907 1.664063 3.988281 5.527344 6.589843 9.835938 6.589843 10.003906 0 19.242188-4.007812 26.710938-11.605469 27.113281-27.5625 26.75-97.960937 26.621093-105.898437zm0 0" fill="#90a4ae"/><path d="m426.667969 170.667969c-11.777344 0-21.335938 9.578125-21.335938 21.332031s9.558594 21.332031 21.335938 21.332031c11.773437 0 21.332031-9.578125 21.332031-21.332031s-9.558594-21.332031-21.332031-21.332031zm0 0" fill="#455a64"/><path d="m106.625 416c-1.6875 0-3.394531-.40625-4.972656-1.257812-2.429688-1.28125-58.984375-32.789063-58.984375-148.074219 0-120.746094 184.640625-181.335938 288-181.335938 110.71875 0 176.445312 85.933594 179.199219 89.601563 3.15625 4.246094 2.75 10.195312-1.003907 13.929687l-13.78125 13.804688 13.78125 13.78125c2.007813 2.027343 3.136719 4.757812 3.136719 7.59375 0 2.835937-1.152344 5.566406-3.15625 7.550781-2.796875 2.730469-68.800781 67.074219-135.511719 67.074219h-42.664062c-5.890625 0-10.667969-4.78125-10.667969-10.667969s4.777344-10.667969 10.667969-10.667969h42.664062c45.71875 0 93.933594-37.566406 112.535157-53.695312l-13.417969-13.417969c-4.160157-4.160156-4.160157-10.921875 0-15.082031l14.398437-14.402344c-17.707031-19.710937-74.027344-74.066406-156.179687-74.066406-108.738281 0-266.667969 62.335937-266.667969 160 0 101.394531 47.296875 129.042969 47.765625 129.300781 5.097656 2.859375 7.019531 9.320312 4.203125 14.441406-1.921875 3.5625-5.570312 5.589844-9.34375 5.589844zm0 0"/><path d="m288 341.332031c-4.308594 0-8.214844-2.601562-9.855469-6.589843-1.644531-3.988282-.726562-8.578126 2.304688-11.628907.722656-.722656 1.449219-1.832031 1.386719-4.519531-.46875-20.4375-40.152344-64.042969-65.046876-86.722656-4.351562-3.96875-4.671874-10.707032-.703124-15.058594 4.011718-4.332031 10.75-4.675781 15.082031-.707031 6.828125 6.230469 63.703125 58.925781 71.1875 95.253906 15.210937-20.585937 17.921875-69.203125 17.625-87.1875-.109375-5.890625 4.605469-10.730469 10.472656-10.839844 5.566406.46875 10.753906 4.589844 10.859375 10.496094.128906 7.9375.488281 78.335937-26.625 105.898437-7.445312 7.597657-16.683594 11.605469-26.6875 11.605469zm0 0"/><path d="m373.246094 256c-1.746094 0-3.519532-.449219-5.140625-1.367188-1.085938-.617187-26.773438-15.59375-26.773438-62.632812s25.6875-62.015625 26.773438-62.632812c5.101562-2.902344 11.628906-1.070313 14.527343 4.050781 2.859376 5.078125 1.109376 11.5-3.902343 14.421875-.9375.617187-16.0625 10.792968-16.0625 44.160156 0 33.726562 15.445312 43.734375 16.105469 44.160156 4.90625 3.070313 6.59375 9.558594 3.625 14.550782-2.003907 3.367187-5.523438 5.289062-9.152344 5.289062zm0 0"/><path d="m202.644531 490.667969c-2.027343 0-4.03125-.578125-5.824219-1.75-17.769531-11.671875-37.972656-16.621094-57.535156-21.398438-25.28125-6.1875-51.414062-12.585937-72.148437-33.320312-36.738281-36.714844-67.136719-73.070313-67.136719-146.199219 0-70.996094 43.925781-133.652344 67.113281-156.886719 4.160157-4.160156 10.925781-4.160156 15.085938 0 4.15625 4.160157 4.15625 10.925781 0 15.085938-21.058594 21.054687-60.867188 77.800781-60.867188 141.800781 0 65.066406 26.371094 96.640625 60.886719 131.113281 16.492188 16.492188 38.65625 21.933594 62.144531 27.671875 12.671875 3.113282 25.597657 6.25 38.398438 11.199219-4.605469-18.347656-5.480469-42.347656 12.375-60.222656 13.523437-13.527344 17.769531-42.285157 18.601562-64.449219-26.238281 23.636719-59.667969 50.6875-75.070312 50.6875-23.296875 0-53.335938-31.039062-53.335938-64 0-29.972656 30.785157-85.332031 74.667969-85.332031 24.0625 0 54.144531 12.203125 78.335938 21.992187 10.964843 4.4375 24.574218 9.964844 28.332031 10.007813 5.867187.0625 10.644531 4.882812 10.601562 10.730469-.042969 5.867187-4.757812 10.601562-10.601562 10.601562-7.445313 0-17.578125-3.96875-36.332031-11.5625-21.289063-8.617188-50.433594-20.4375-70.335938-20.4375-29.183594 0-53.332031 42.367188-53.332031 64 0 21.164062 20.519531 42.667969 32 42.667969 9.234375-1.175781 47.847656-32.511719 77.992187-61.078125 2.988282-2.835938 7.296875-3.667969 11.117188-2.21875 3.839844 1.472656 6.503906 4.992187 6.824218 9.085937.257813 3.007813 5.824219 74.15625-24.425781 104.429688-20.96875 20.992187 1.492188 61.460937 1.726563 61.867187 2.433594 4.285156 1.601562 9.683594-1.980469 13.03125-2.007813 1.898438-4.632813 2.882813-7.277344 2.882813zm0 0"/><path d="m117.3125 170.667969c-1.8125 0-3.667969-.46875-5.375-1.453125-19.585938-11.453125-75.949219-41.214844-101.269531-41.214844-4.3125 0-8.214844-2.601562-9.855469-6.59375-1.644531-3.988281-.7265625-8.554688 2.300781-11.625 51.328125-51.285156 180.351563-109.78125 242.21875-109.78125 77.589844 1.449219 114.945313 88.171875 116.503907 91.863281 2.261718 5.417969-.277344 11.667969-5.699219 13.949219-5.351563 2.285156-11.667969-.234375-13.972657-5.675781-.320312-.765625-33.597656-77.609375-97.042968-78.804688-46.679688 0-153.089844 42.925781-210.816406 89.21875 36.222656 10.109375 82.195312 36.585938 88.425781 40.234375 5.078125 2.984375 6.785156 9.511719 3.820312 14.589844-1.984375 3.414062-5.570312 5.292969-9.238281 5.292969zm0 0"/><path d="m181.332031 128c-2.730469 0-5.460937-1.046875-7.550781-3.113281-12.4375-12.460938-69.097656-31.105469-101.886719-39.917969-5.675781-1.535156-9.066406-7.378906-7.511719-13.074219 1.515626-5.675781 7.320313-9.003906 13.058594-7.53125 9.257813 2.496094 90.921875 24.894531 111.445313 45.417969 4.160156 4.160156 4.160156 10.921875 0 15.082031-2.09375 2.089844-4.824219 3.136719-7.554688 3.136719zm0 0"/><path d="m288 106.667969c-4.03125 0-7.894531-2.304688-9.683594-6.210938-16.554687-36.050781-92.078125-54.015625-119.789062-57.898437-5.84375-.808594-9.898438-6.207032-9.085938-12.03125.832032-5.84375 6.398438-9.898438 12.03125-9.085938 4.523438.617188 111.402344 16.082032 136.210938 70.101563 2.453125 5.351562.128906 11.6875-5.226563 14.140625-1.425781.664062-2.964843.984375-4.457031.984375zm0 0"/><path d="m426.667969 213.332031c-11.777344 0-21.335938-9.578125-21.335938-21.332031s9.558594-21.332031 21.335938-21.332031c11.773437 0 21.332031 9.578125 21.332031 21.332031s-9.558594 21.332031-21.332031 21.332031zm0-21.332031h10.664062zm0 0"/></svg>
